<?xml version="1.0" encoding="utf-8"?>
<!-- Generator: Adobe Illustrator 26.0.2, SVG Export Plug-In . SVG Version: 6.00 Build 0)  -->
<svg version="1.1" id="Capa_1" xmlns="http://www.w3.org/2000/svg" xmlns:xlink="http://www.w3.org/1999/xlink" x="0px" y="0px"
	 viewBox="0 0 216 36" style="enable-background:new 0 0 216 36;" xml:space="preserve">
<style type="text/css">
	.st0{fill:none;stroke:#D0D0D0;stroke-dasharray:8,6;}
	.st1{fill:#62A8A8;}
	.st2{fill:#D9D7D4;}
	.st3{fill:#FFFFFF;}
</style>
<path class="st0" d="M0.6,17.9h199H216"/>
<g>
	<path class="st1" d="M119.4,21.7c-0.1-0.1-0.1-0.2-0.1-0.3l0-7.4c0-0.1,0-0.1,0.1-0.2c-2.1-1-4.4-1.7-6.9-1.7c-3,0-5.8,1-8.1,2.3
		c-0.5,0.3-0.7,0.7-0.8,1.3l0,4.2c0,0.5,0.3,1,0.8,1.3c2.3,1.3,5.1,2.3,8.1,2.3c2.5,0,5-0.7,7.1-1.7
		C119.5,21.8,119.4,21.8,119.4,21.7z"/>
	<path class="st2" d="M123.8,16.7c-1.1-0.8-2.3-1.7-3.7-2.4l0,7.2l0,0c1.4-0.8,2.7-1.6,3.7-2.4C124.5,18.5,124.5,17.4,123.8,16.7z"
		/>
	<path class="st2" d="M107.8,12.3l-2.6-2.4c-0.1-0.1-0.2-0.1-0.3-0.1l-5.1,0c-0.4,0-0.6,0.5-0.3,0.7l3.9,4.2
		c0.1,0.1,0.3,0.2,0.5,0.1l3.9-1.8C108,12.9,108.1,12.5,107.8,12.3z"/>
	<path class="st2" d="M107.9,23.4l-2.6,2.4c-0.1,0.1-0.2,0.1-0.3,0.1l-5.1,0c-0.4,0-0.6-0.5-0.3-0.7l3.8-4.1
		c0.1-0.1,0.3-0.2,0.5-0.1l3.9,1.8C108.1,22.8,108.1,23.2,107.9,23.4z"/>
	<path class="st3" d="M114.4,20.2c-1.3,0-2.3-1-2.3-2.3c0-1.3,1-2.3,2.3-2.3c1.3,0,2.3,1,2.3,2.3S115.7,20.2,114.4,20.2z"/>
	<path d="M112.5,19.8c-0.5-0.5-0.8-1.2-0.8-1.9c0-1.5,1.2-2.7,2.7-2.7c0.7,0,1.4,0.3,1.9,0.8c0.5,0.5,0.8,1.2,0.8,1.9
		c0,1.5-1.2,2.7-2.7,2.7C113.7,20.6,113,20.3,112.5,19.8z M115.7,16.5c-0.4-0.4-0.9-0.6-1.4-0.6c-1.1,0-1.9,0.9-1.9,1.9
		c0,0.5,0.2,1,0.6,1.4c0.4,0.4,0.9,0.6,1.4,0.6c0.5,0,1-0.2,1.4-0.6c0.4-0.4,0.6-0.9,0.6-1.4C116.3,17.4,116.1,16.9,115.7,16.5z"/>
	<path class="st3" d="M96.5,17c-0.6-0.5-1.3-0.9-2-0.9c-1.2,0-2.3,1.1-2.9,1.9c0.6,0.8,1.7,1.9,2.9,1.9c0.7,0,1.4-0.4,2-0.9L96.5,17
		z"/>
	<path d="M92,19c-0.3-0.3-0.5-0.6-0.7-0.8c-0.1-0.1-0.1-0.3,0-0.5c0.6-0.8,1.8-2,3.2-2c0.7,0,1.5,0.3,2.3,1c0.1,0.1,0.1,0.2,0.1,0.3
		l0,2c0,0.1,0,0.2-0.1,0.3c-0.8,0.7-1.5,1-2.3,1C93.5,20.3,92.7,19.7,92,19z M92.2,18c1.1,1.3,2,1.5,2.4,1.5c0.5,0,1.1-0.2,1.6-0.7
		l0-1.6c-0.6-0.5-1.1-0.7-1.6-0.7C94.2,16.5,93.3,16.7,92.2,18z"/>
	<path d="M124.7,17.9c0-0.6-0.3-1.1-0.7-1.5c-2.7-2.1-6.9-4.6-11.6-4.6c-1.3,0-2.7,0.2-4.1,0.6c0-0.1-0.1-0.3-0.2-0.4l-2.6-2.4
		c-0.1-0.1-0.4-0.2-0.6-0.2l-5.1,0c-0.3,0-0.6,0.2-0.8,0.5c-0.1,0.3-0.1,0.7,0.2,0.9l3.8,4.2l0,0c0.1,0.1,0.1,0.1,0.2,0.1
		c-0.1,0.2-0.1,0.4-0.1,0.6l0,1.7l-4.4,0c-0.2,0-0.4,0.2-0.4,0.4c0,0.1,0.1,0.2,0.1,0.3c0.1,0.1,0.2,0.1,0.3,0.1l4.4,0l0,1.7
		c0,0.2,0,0.4,0.1,0.6c-0.1,0-0.2,0.1-0.2,0.2l-3.8,4.1c-0.2,0.3-0.3,0.6-0.2,0.9c0,0.1,0.1,0.2,0.2,0.3c0.1,0.1,0.4,0.2,0.6,0.3
		l5.1,0c0.2,0,0.4-0.1,0.6-0.2l2.6-2.4c0.1-0.1,0.2-0.2,0.2-0.3c1.4,0.4,2.7,0.6,4.1,0.6c4.8,0,8.9-2.5,11.6-4.6
		C124.5,19,124.8,18.5,124.7,17.9z M104.1,14.1c-0.1,0.1-0.2,0.1-0.3,0.3l-0.1,0.1c0,0,0,0-0.1,0l-3.9-4.2c0,0,0,0,0-0.1
		c0,0,0,0,0,0l5.1,0l0,0l2.6,2.4c0,0,0,0,0,0.1C106.5,13,105.3,13.5,104.1,14.1z M105,25.5C105,25.5,105,25.5,105,25.5l-5.1,0
		c0,0,0,0,0,0c0,0,0,0,0-0.1l3.8-4.1c0,0,0.1,0,0.1,0l0,0c0.1,0.1,0.3,0.2,0.4,0.3c1.2,0.6,2.3,1.1,3.5,1.6l0,0L105,25.5z
		 M112.4,23.1c-1.4,0-2.9-0.2-4.3-0.7c-0.3-0.1-0.6-0.2-0.9-0.3c0,0,0,0,0,0c-0.3-0.1-0.6-0.2-0.8-0.4c-0.1,0-0.1-0.1-0.2-0.1
		c-0.2-0.1-0.4-0.2-0.7-0.3c-0.3-0.2-0.6-0.3-0.9-0.5c-0.1,0-0.1-0.1-0.1-0.1c0,0,0,0,0,0c0,0-0.1-0.1-0.1-0.1
		c-0.1-0.2-0.2-0.4-0.2-0.7l0-1.7l4,0c0.2,0,0.4-0.2,0.4-0.4c0-0.2-0.2-0.4-0.4-0.4l-4.1,0l0-1.7c0-0.3,0.1-0.5,0.3-0.7
		c0,0,0.1-0.1,0.1-0.1c0,0,0,0,0,0c0,0,0.1-0.1,0.1-0.1c0.3-0.2,0.6-0.3,0.9-0.5c0.2-0.1,0.4-0.2,0.6-0.3c0.1-0.1,0.2-0.1,0.3-0.1
		c0.3-0.1,0.5-0.2,0.8-0.3c0,0,0.1,0,0.1,0c0.3-0.1,0.6-0.2,0.8-0.3c1.5-0.5,3-0.7,4.4-0.7c1.7,0,4.1,0.4,6.9,1.7l0,7.1
		C116.5,22.8,114.1,23.1,112.4,23.1z M123.6,18.8c-1.2,1-2.4,1.7-3.5,2.3l0-6.3c1.1,0.6,2.3,1.4,3.5,2.3c0,0,0.1,0.1,0.1,0.1
		c0.2,0.2,0.3,0.5,0.3,0.8C124,18.2,123.8,18.5,123.6,18.8z"/>
</g>
</svg>
