<svg width="185" height="25" viewBox="0 0 185 25" fill="none" xmlns="http://www.w3.org/2000/svg">
<path d="M0.986572 12.9194L170.809 12.9194L184.788 12.9194" stroke="#D0D0D0" stroke-dasharray="8 6"/>
<path d="M79.6771 2.00997C79.7387 2.27664 79.9235 2.48404 80.2007 2.5433L80.8784 2.72107C81.094 2.78033 81.248 2.89885 81.3404 3.10625L81.7717 3.9655C81.8333 4.05439 81.8949 4.14328 81.9873 4.20254L82.8498 4.88401C82.9114 4.94327 82.973 5.00253 83.0346 5.09141L83.4967 5.86178C83.5275 5.92103 83.5891 6.00992 83.6507 6.03955L85.0368 7.19509C85.1908 7.31361 85.3756 7.37287 85.5605 7.37287L88.456 7.4025C88.8872 7.37287 89.2568 7.13583 89.2568 7.55064V6.98769C89.2568 7.4025 89.5957 7.72842 90.0269 7.72842H91.259C91.6903 7.72842 92.0291 7.4025 92.0291 6.98769V2.36552C92.0291 2.15812 91.9367 1.98034 91.7827 1.8322L91.1974 1.3285C91.0434 1.20998 90.8586 1.12109 90.6738 1.12109H80.4164C79.9235 1.12109 79.5539 1.56553 79.6771 2.00997Z" fill="#D9D7D4"/>
<path d="M106.106 2.00997C106.044 2.27664 105.86 2.48404 105.582 2.5433L104.905 2.72107C104.689 2.78033 104.535 2.89885 104.443 3.10625L104.011 3.9655C103.95 4.05439 103.888 4.14328 103.796 4.20254L102.933 4.88401C102.872 4.94327 102.81 5.00253 102.749 5.09141L102.287 5.86178C102.256 5.92103 102.194 6.00992 102.133 6.03955L100.746 7.19509C100.592 7.31361 100.408 7.37287 100.223 7.37287L97.2964 7.4025C96.8652 7.37287 96.4955 7.13583 96.4955 7.55064V6.98769C96.4955 7.4025 96.1567 7.72842 95.7255 7.72842H94.4933C94.0621 7.72842 93.7233 7.4025 93.7233 6.98769V2.36552C93.7233 2.15812 93.8157 1.98034 93.9697 1.8322L94.555 1.3285C94.709 1.20998 94.8938 1.12109 95.0786 1.12109H105.367C105.86 1.12109 106.229 1.56553 106.106 2.00997Z" fill="#D9D7D4"/>
<path d="M102.287 15.1653C102.287 20.143 98.0666 24.143 92.8916 24.143C87.6859 24.143 83.4967 20.1134 83.4967 15.1653C83.4967 10.1876 87.7167 6.18766 92.8916 6.18766C98.0666 6.15803 102.287 10.1876 102.287 15.1653Z" fill="white"/>
<path d="M93.6597 12.7654C93.6597 12.3802 93.9677 12.1135 94.3682 12.1135H96.586C97.2945 12.1135 97.8797 12.2913 98.2186 12.6469C98.4958 12.9135 98.6498 13.2691 98.6498 13.6839V13.7135C98.6498 14.395 98.2802 14.7802 97.8181 15.0172C98.5574 15.2839 98.9886 15.6987 98.9886 16.4987V16.5283C98.9886 17.6246 98.0645 18.1875 96.6168 18.1875H94.3374C93.9369 18.1875 93.6289 17.8912 93.6289 17.506V12.7654H93.6597ZM96.278 14.5135C96.894 14.5135 97.2637 14.3653 97.2637 13.8913V13.8617C97.2637 13.4765 96.9248 13.2394 96.3704 13.2394H95.015V14.5135H96.278ZM96.6476 16.9727C97.2637 16.9727 97.6333 16.7653 97.6333 16.3209V16.2913C97.6333 15.8764 97.3253 15.6394 96.6168 15.6394H95.015V16.9727H96.6476Z" fill="#8DA43C"/>
<path d="M89.742 18.697C87.5295 18.697 85.9249 17.2287 85.9249 15.2075C85.9249 13.222 87.5975 11.6824 89.7335 11.6824C90.7281 11.6824 91.4826 11.8845 92.1797 12.3383C92.4857 12.5483 92.6557 12.8574 92.6557 13.1963C92.6557 13.7749 92.1499 14.2465 91.5293 14.2465C91.1978 14.2465 90.981 14.1236 90.845 14.0325C90.4879 13.7947 90.15 13.6956 89.6846 13.6956C88.8982 13.6956 88.2564 14.3574 88.2564 15.1718C88.2564 16.0794 88.8855 16.6996 89.7845 16.6996C90.1309 16.6996 90.4412 16.6362 90.6962 16.5133V16.2716H90.1628C89.5868 16.2716 89.1192 15.8396 89.1192 15.3086C89.1192 14.7716 89.5868 14.3356 90.1628 14.3356H91.7844C92.4092 14.3356 92.9193 14.8112 92.9193 15.3938V16.8542C92.9193 17.3793 92.6812 17.7776 92.2137 18.0371C91.4677 18.4691 90.6112 18.697 89.742 18.697Z" fill="#8DA43C"/>
<path d="M89.7335 12.0787C90.7111 12.0787 91.3551 12.2848 91.9374 12.6633C92.0755 12.7584 92.2328 12.9387 92.2328 13.1963C92.2328 13.557 91.9204 13.8502 91.5315 13.8502C91.3296 13.8502 91.1999 13.7809 91.0979 13.7135C90.7111 13.4559 90.2967 13.3013 89.6867 13.3013C88.6538 13.3013 87.8335 14.1514 87.8335 15.1739V15.1917C87.8335 16.2915 88.6453 17.0999 89.7866 17.0999C90.303 17.0999 90.7642 16.9791 91.1234 16.7393V15.8793H90.1649C89.8249 15.8793 89.5464 15.6296 89.5464 15.3126C89.5464 14.9956 89.8227 14.736 90.1649 14.736H91.7865C92.1818 14.736 92.4964 15.0273 92.4964 15.3978V16.8582C92.4964 17.2446 92.3391 17.5121 91.999 17.7003C91.4741 18.0015 90.709 18.3027 89.7398 18.3027C87.7336 18.3008 86.35 16.985 86.35 15.2076V15.1897C86.35 13.4797 87.7782 12.0787 89.7335 12.0787ZM89.7335 11.2861C87.3595 11.2861 85.4999 13.0002 85.4999 15.1897V15.2076C85.4999 17.4586 87.283 19.0934 89.742 19.0934C90.6877 19.0934 91.6207 18.8457 92.4411 18.378C93.0341 18.0471 93.3486 17.522 93.3486 16.8582V15.3978C93.3486 14.8945 93.0744 14.4506 92.6579 14.1911C92.9214 13.9315 93.0829 13.5827 93.0829 13.1983C93.0829 12.7406 92.8428 12.3007 92.4411 12.0272L92.4305 12.0193L92.422 12.0134C91.6505 11.51 90.8195 11.2861 89.7335 11.2861ZM88.7027 15.4236C88.6899 15.3503 88.6836 15.271 88.6836 15.1917V15.1739C88.6836 14.6746 88.9981 14.2545 89.4253 14.1296C88.9896 14.3674 88.6985 14.8073 88.6985 15.3106C88.6985 15.3483 88.7006 15.3859 88.7027 15.4236Z" fill="white"/>
<path d="M106.753 0.735845C106.661 0.646957 106.537 0.587699 106.414 0.587699H95.5715C95.4175 0.587699 94.5858 0.558069 93.9697 1.0914C93.5077 1.47658 93.2921 2.03953 93.2921 2.78026V5.74319C93.1688 5.74319 93.0148 5.74319 92.8608 5.74319C92.7068 5.74319 92.5836 5.74319 92.4604 5.74319V2.78026C92.4604 2.03953 92.2448 1.47658 91.7827 1.0914C91.1666 0.558069 90.335 0.587699 90.181 0.617328H79.3075C79.1843 0.587699 79.0918 0.646957 78.9994 0.735845C78.907 0.824733 78.8762 0.94325 78.8762 1.06177C78.9378 1.83213 79.4615 3.19507 81.0324 3.46174C81.1865 4.20247 81.7101 5.18023 82.9422 5.47653C83.0962 6.3654 83.8047 7.66909 85.6221 7.66909H86.885C84.5132 9.38759 83.0038 12.1135 83.0038 15.1653C83.0038 20.38 87.4395 24.5874 92.8608 24.5874C98.313 24.5874 102.718 20.3504 102.718 15.1653C102.718 12.1135 101.208 9.38759 98.8366 7.66909H100.13C101.948 7.66909 102.625 6.33578 102.81 5.47653C104.012 5.18023 104.535 4.20247 104.72 3.46174C106.291 3.19507 106.815 1.83213 106.876 1.06177C106.876 0.94325 106.845 0.824733 106.753 0.735845ZM85.5913 6.80984C84.4208 6.80984 83.9895 6.03948 83.8663 5.56541H86.4538C86.7002 5.56541 86.885 5.38764 86.885 5.15061C86.885 4.91357 86.7002 4.7358 86.4538 4.7358H83.7123C82.5726 4.7358 82.1413 4.02469 81.9873 3.521H84.3592C84.6056 3.521 84.7904 3.34322 84.7904 3.10619C84.7904 2.86915 84.6056 2.69138 84.3592 2.69138H81.5869C80.4472 2.66175 80.0159 1.95064 79.8619 1.44695H90.181C90.181 1.44695 90.2118 1.44695 90.2426 1.44695C90.2426 1.44695 90.8278 1.38769 91.1975 1.71361C91.4439 1.92102 91.5671 2.27657 91.5671 2.78026V5.80245C90.3966 5.9506 89.2877 6.30615 88.2712 6.80984H85.5913ZM101.825 15.1653C101.825 19.8763 97.8201 23.6985 92.8916 23.6985C87.9631 23.6985 83.9587 19.8763 83.9587 15.1653C83.9587 10.4542 87.9631 6.63207 92.8916 6.63207C97.8201 6.60244 101.825 10.4542 101.825 15.1653ZM104.166 2.66175H101.424C101.178 2.66175 100.993 2.83952 100.993 3.07656C100.993 3.31359 101.178 3.49137 101.424 3.49137H103.796C103.642 3.99506 103.211 4.70617 102.071 4.70617H99.3295C99.083 4.70617 98.8982 4.88394 98.8982 5.12098C98.8982 5.35801 99.083 5.53579 99.3295 5.53579H101.917C101.763 6.03948 101.362 6.78021 100.192 6.78021H97.5121C96.4956 6.27652 95.3867 5.92097 94.2162 5.77282V2.78026C94.2162 2.3062 94.3394 1.95064 94.5858 1.71361C94.9246 1.38769 95.5099 1.44695 95.5099 1.44695C95.5407 1.44695 95.5407 1.44695 95.5715 1.44695H105.891C105.737 1.95064 105.305 2.66175 104.166 2.66175Z" fill="black"/>
</svg>
