<svg width="183" height="24" viewBox="0 0 183 24" fill="none" xmlns="http://www.w3.org/2000/svg">
<path d="M0.60376 12.9233H169.015H182.877" stroke="#D0D0D0" stroke-dasharray="8 6"/>
<path d="M87.8607 15.4143L68.8681 15.4143C67.9695 15.4143 67.2408 16.1294 67.2408 17.0113V20.6581C67.2408 21.54 67.9695 22.255 68.8681 22.255L87.885 22.255C88.7836 22.255 89.5122 21.54 89.5122 20.6581V17.0113C89.4879 16.1294 88.7593 15.4143 87.8607 15.4143Z" fill="#DF3343"/>
<path d="M72.9727 18.7512C72.9727 19.7523 72.1469 20.5627 71.1268 20.5627C70.1068 20.5627 69.281 19.7523 69.281 18.7512C69.281 17.7501 70.1068 16.9397 71.1268 16.9397C72.1469 16.9397 72.9727 17.7501 72.9727 18.7512Z" fill="white"/>
<path d="M71.1269 20.9201C69.9125 20.9201 68.9167 19.9428 68.9167 18.751C68.9167 17.5593 69.9125 16.582 71.1269 16.582C72.3412 16.582 73.337 17.5593 73.337 18.751C73.337 19.9666 72.3412 20.9201 71.1269 20.9201ZM71.1269 17.2971C70.3011 17.2971 69.6454 17.9406 69.6454 18.751C69.6454 19.5614 70.3011 20.205 71.1269 20.205C71.9527 20.205 72.6084 19.5614 72.6084 18.751C72.6084 17.9406 71.9284 17.2971 71.1269 17.2971Z" fill="black"/>
<path d="M75.037 19.919C74.8427 19.919 74.6727 19.7521 74.6727 19.5614V17.9645C74.6727 17.7738 74.8427 17.6069 75.037 17.6069C75.2313 17.6069 75.4013 17.7738 75.4013 17.9645V19.5614C75.4013 19.7521 75.2313 19.919 75.037 19.919Z" fill="black"/>
<path d="M76.9557 19.919C76.7614 19.919 76.5914 19.7521 76.5914 19.5614V17.9645C76.5914 17.7738 76.7614 17.6069 76.9557 17.6069C77.15 17.6069 77.32 17.7738 77.32 17.9645V19.5614C77.32 19.7521 77.15 19.919 76.9557 19.919Z" fill="black"/>
<path d="M78.8744 19.919C78.6801 19.919 78.5101 19.7521 78.5101 19.5614V17.9645C78.5101 17.7738 78.6801 17.6069 78.8744 17.6069C79.0687 17.6069 79.2387 17.7738 79.2387 17.9645L79.2387 19.5614C79.2387 19.7521 79.0687 19.919 78.8744 19.919Z" fill="black"/>
<path d="M80.7931 19.919C80.5988 19.919 80.4288 19.7521 80.4288 19.5614V17.9645C80.4288 17.7738 80.5988 17.6069 80.7931 17.6069C80.9874 17.6069 81.1574 17.7738 81.1574 17.9645V19.5614C81.1574 19.7521 80.9874 19.919 80.7931 19.919Z" fill="black"/>
<path d="M85.0191 9.57446C84.2419 9.57446 83.6105 10.1942 83.6105 10.9569V15.1758H86.4278V10.9569C86.4278 10.1942 85.7963 9.57446 85.0191 9.57446Z" fill="#D9D7D4"/>
<path d="M87.8607 15.0567H86.7921V10.957C86.7921 10.1228 86.1849 9.40769 85.3835 9.26468V0.946153C85.3835 0.75547 85.2134 0.588623 85.0191 0.588623C84.8248 0.588623 84.6548 0.75547 84.6548 0.946153V9.24084C83.8534 9.40769 83.2462 10.0989 83.2462 10.9332V15.0328L68.8681 15.0328C67.7752 15.0328 66.8766 15.9147 66.8766 16.9873V20.6341C66.8766 21.7067 67.7752 22.5886 68.8681 22.5886L87.885 22.5886C88.978 22.5886 89.8766 21.7067 89.8766 20.6341V17.0112C89.8523 15.9386 88.9537 15.0567 87.8607 15.0567ZM83.9748 10.957C83.9748 10.3849 84.4362 9.93207 85.0191 9.93207C85.602 9.93207 86.0635 10.3849 86.0635 10.957V15.0567H83.9748V10.957ZM89.1237 20.6341C89.1237 21.3015 88.5651 21.8736 87.8607 21.8736L68.8681 21.8736C68.1638 21.8736 67.6052 21.3254 67.6052 20.6341V17.0112C67.6052 16.3438 68.1638 15.7717 68.8681 15.7717L87.885 15.7717C88.5651 15.7717 89.148 16.3199 89.148 17.0112V20.6341H89.1237Z" fill="black"/>
<path d="M97.8347 19.3743V22.166C97.8347 22.6848 98.1701 23.1295 98.6042 23.1295H106.871C107.285 23.1295 107.64 22.7095 107.64 22.166V19.3743H97.8347Z" fill="#C31424"/>
<path d="M107.64 4.14442V1.42053C107.64 0.865179 107.262 0.38916 106.773 0.38916H97.4508C96.9836 0.38916 96.5831 0.838734 96.5831 1.42053V4.14442H107.64Z" fill="#C31424"/>
<path d="M106.389 4.14442V1.42053C106.389 0.865179 106.053 0.38916 105.619 0.38916H97.3526C96.9383 0.38916 96.5831 0.838734 96.5831 1.42053V4.14442H106.389Z" fill="#DF3343"/>
<path d="M107.636 4.14673H95.7374V19.312H107.636V4.14673Z" fill="white"/>
<path d="M96.5831 19.3743V22.166C96.5831 22.6848 96.9185 23.1295 97.3526 23.1295H105.619C106.033 23.1295 106.389 22.7095 106.389 22.166V19.3743H96.5831Z" fill="#DF3343"/>
<path d="M106.77 0.180664H96.4359C95.696 0.180664 95.104 0.772613 95.104 1.51255V22.1321C95.104 22.872 95.696 23.464 96.4359 23.464H106.77C107.51 23.464 108.102 22.872 108.102 22.1321V1.51255C108.127 0.772613 107.51 0.180664 106.77 0.180664ZM96.4359 0.945264H106.77C107.091 0.945264 107.338 1.19191 107.338 1.51255V3.75702H95.8686V1.51255C95.8686 1.21657 96.1399 0.945264 96.4359 0.945264ZM107.362 18.9997H95.8686V4.54629H107.362V18.9997ZM106.77 22.724H96.4359C96.1152 22.724 95.8686 22.4774 95.8686 22.1568V19.7643H107.362V22.1568C107.362 22.4774 107.091 22.724 106.77 22.724Z" fill="black"/>
<path d="M103.86 2.8691H99.3711C99.1491 2.8691 98.9764 2.69645 98.9764 2.47447C98.9764 2.25249 99.1491 2.07983 99.3711 2.07983H103.86C104.082 2.07983 104.255 2.25249 104.255 2.47447C104.23 2.69645 104.057 2.8691 103.86 2.8691Z" fill="black"/>
<path d="M100.629 21.2195C100.629 20.6769 101.073 20.2329 101.616 20.2329C102.158 20.2329 102.602 20.6769 102.602 21.2195C102.602 21.7621 102.158 22.2061 101.616 22.2061C101.073 22.1814 100.629 21.7621 100.629 21.2195Z" fill="black"/>
<rect x="94.9631" y="9.66333" width="1.23007" height="0.922553" fill="white"/>
<rect x="94.9628" y="11.5083" width="1.23007" height="0.922553" fill="white"/>
</svg>
